<svg width="12" height="14" viewBox="0 0 12 14" fill="none" xmlns="http://www.w3.org/2000/svg">
<path d="M10.5455 5.77273C10.5455 9.48485 5.77273 12.6667 5.77273 12.6667C5.77273 12.6667 1 9.48485 1 5.77273C1 4.50692 1.50284 3.29296 2.3979 2.3979C3.29296 1.50284 4.50692 1 5.77273 1C7.03853 1 8.25249 1.50284 9.14755 2.3979C10.0426 3.29296 10.5455 4.50692 10.5455 5.77273Z" stroke="white" stroke-linecap="round" stroke-linejoin="round"/>
<path d="M5.77255 7.36346C6.65118 7.36346 7.36346 6.65118 7.36346 5.77255C7.36346 4.89391 6.65118 4.18164 5.77255 4.18164C4.89391 4.18164 4.18164 4.89391 4.18164 5.77255C4.18164 6.65118 4.89391 7.36346 5.77255 7.36346Z" stroke="white" stroke-linecap="round" stroke-linejoin="round"/>
</svg>
